<svg width="181" height="52" viewBox="0 0 181 52" fill="none" xmlns="http://www.w3.org/2000/svg">
<path fill-rule="evenodd" clip-rule="evenodd" d="M24.5286 18.7111C26.3847 16.8498 28.9481 15.6979 31.7776 15.6979C37.4368 15.6979 42.0313 20.3055 42.0313 25.9808C42.0313 28.8184 40.8827 31.3892 39.0267 33.2505L39.0281 33.252L23.8055 48.518L23.804 48.5166C21.948 50.3778 19.3845 51.5298 16.555 51.5298C10.8958 51.5298 6.30127 46.9222 6.30127 41.2468C6.30127 38.4092 7.44992 35.8385 9.30592 33.9771L9.3045 33.9757L24.5272 18.7097L24.5286 18.7111Z" fill="#0167D9"/>
<path fill-rule="evenodd" clip-rule="evenodd" d="M28.5817 16.2083C28.7038 16.2147 28.8259 16.2237 28.9469 16.2349C30.3847 16.3637 31.8183 16.8007 33.1494 17.5715C34.7958 18.5248 36.0787 19.8682 36.9496 21.4176L36.9544 21.4267L36.9746 21.4629C37.0303 21.5624 37.0839 21.663 37.1359 21.7647L37.1604 21.8121L37.1683 21.828L37.1736 21.8381L37.189 21.8695L37.1991 21.8898L37.2044 21.9004L37.2177 21.927L37.2262 21.9441L37.2299 21.952L37.2347 21.9622L37.2458 21.9845L37.2554 22.0042L37.2601 22.0143L37.2644 22.0234L37.2734 22.0425L37.2846 22.0654L37.2899 22.0766L37.2936 22.0851L37.301 22.1005L37.3132 22.1272L37.3191 22.1394L37.3281 22.1586L37.3546 22.2171L37.3812 22.2762L37.405 22.3305C37.4157 22.3539 37.4257 22.3779 37.4358 22.4013L37.4464 22.4258L37.4581 22.4534L37.4597 22.4572C37.4661 22.4731 37.473 22.4886 37.4793 22.504L37.4852 22.5189C37.4916 22.5338 37.4979 22.5492 37.5043 22.5647L37.5107 22.5801C37.517 22.5956 37.5229 22.6105 37.5292 22.6259L37.5356 22.6419C37.5414 22.6573 37.5473 22.6722 37.5537 22.6876L37.5653 22.7169L37.5797 22.7542L37.5903 22.7824L37.603 22.8148L37.6152 22.8484L37.6258 22.8761L37.6396 22.9138L37.6481 22.9367L37.6513 22.9453C37.6561 22.9591 37.6614 22.9729 37.6662 22.9873L37.6704 22.9985L37.6922 23.0602L37.6991 23.0799L37.7134 23.122L37.7219 23.147L37.7346 23.1837L37.7447 23.214L37.7553 23.246L37.767 23.2811L37.7755 23.3088L37.7957 23.3716L37.81 23.4168C37.8206 23.4509 37.8307 23.485 37.8408 23.519L37.8535 23.5606L37.8721 23.6244L37.8902 23.6878L37.8928 23.6968L37.9077 23.7516L37.9252 23.816L37.9422 23.8805L37.9565 23.9353L37.9586 23.9443L37.9745 24.0087L37.9862 24.055L37.9905 24.0731L38.0006 24.1157C38.0138 24.1727 38.0271 24.2302 38.0393 24.2876L38.0489 24.3302L38.0621 24.3946L38.0754 24.459L38.0881 24.5234L38.1003 24.5873L38.112 24.6517L38.1237 24.7161L38.1343 24.7805L38.1396 24.8098L38.1449 24.8449L38.1508 24.879L38.1555 24.9088L38.1614 24.9487L38.1651 24.9732L38.1746 25.0376L38.1831 25.1015L38.1916 25.1659L38.1948 25.1914L38.2001 25.2303L38.2033 25.2606L38.2049 25.2739C38.2139 25.3495 38.2224 25.4251 38.2293 25.5012L38.2341 25.5507L38.2399 25.6151L38.242 25.6412L38.2426 25.6481L38.2452 25.679L38.2474 25.7104L38.2479 25.7168L38.25 25.7429L38.2543 25.8067L38.2585 25.8706L38.2617 25.9345L38.2643 25.9866C38.2702 26.1016 38.2739 26.2161 38.2755 26.3305C38.2755 26.347 38.276 26.3635 38.276 26.38V26.3821C38.2946 28.161 37.853 29.9675 36.9029 31.6186C36.8743 31.6676 36.8462 31.716 36.817 31.7644L31.7737 40.524C31.1676 38.2555 28.8391 36.9072 26.5765 37.5151L26.576 37.5114L9.88205 41.9973L9.82632 42.0117L9.8242 42.0128L9.81995 42.0138L9.79925 42.0191L9.77059 42.0266L9.76422 42.0282L9.75573 42.0303L9.73662 42.0351L9.71539 42.0404L9.70372 42.0431L9.69151 42.0463L9.67612 42.05L9.65966 42.0543L9.64321 42.058L9.62782 42.0623L9.61561 42.0649L9.60393 42.0676L9.5827 42.0729L9.5636 42.0772L9.5551 42.0793L9.5482 42.0809L9.52007 42.0873L9.49937 42.0921L9.49513 42.0931L9.49247 42.0937L9.44099 42.1054L9.43515 42.1064L9.41711 42.1107L9.38101 42.1187L9.37677 42.1192L9.37093 42.1208L9.35076 42.1251L9.32582 42.1304L9.31679 42.132L9.30724 42.1341L9.28919 42.1378L9.27009 42.1416L9.25682 42.1448L9.24302 42.1474L9.22869 42.1501L9.21436 42.1533L9.19578 42.1565L9.1788 42.1602L9.16818 42.1623L9.15863 42.1639L9.13474 42.1687L9.11457 42.1724L9.1082 42.1735L9.1029 42.1746L9.07052 42.1804L9.05035 42.1842L9.0477 42.1847C9.02859 42.1884 9.00948 42.1916 8.98985 42.1948L8.98666 42.1959L8.96543 42.1991L8.93571 42.2044L8.92987 42.2054L8.92244 42.2065L8.90227 42.2102L8.88051 42.214L8.86989 42.2156L8.85822 42.2172L8.84123 42.2198L8.82478 42.2225L8.80939 42.2251L8.794 42.2273L8.78126 42.2294L8.76905 42.2315L8.74888 42.2342L8.7303 42.2374L8.72075 42.2384L8.71332 42.2395L8.68784 42.2432L8.66608 42.2464L8.66078 42.2475L8.65759 42.248L8.61991 42.2533L8.60186 42.2555L8.58222 42.2581L8.54666 42.2629L8.54348 42.2635L8.53764 42.264L8.51588 42.2672L8.49093 42.2698L8.4835 42.2709L8.47395 42.272L8.45431 42.2746L8.43573 42.2768L8.42353 42.2784L8.40973 42.28L8.3938 42.2816L8.38 42.2832L8.36355 42.2853L8.34604 42.2874L8.33383 42.2885L8.32428 42.2895L8.30358 42.2917L8.28181 42.2943L8.27385 42.2949L8.26908 42.2954L8.24254 42.2981L8.21812 42.3007H8.21388C8.1953 42.3028 8.17672 42.3044 8.15762 42.306L8.1539 42.3066L8.12843 42.3087L8.10242 42.3114H8.09817L8.09021 42.3124L8.06739 42.314L8.04722 42.3156L8.03873 42.3167L8.02652 42.3178L8.00688 42.3188L7.99149 42.3204L7.97928 42.3209L7.9623 42.3225L7.94744 42.3236L7.93629 42.3241L7.91984 42.3252L7.89861 42.3268L7.88746 42.3273L7.88109 42.3279L7.86092 42.3289L7.83492 42.3311H7.82802L7.82536 42.3316L7.8036 42.3327L7.77123 42.3343L7.73248 42.3364L7.71497 42.3374H7.7139H7.70753L7.67834 42.339L7.65977 42.3396L7.65499 42.3401L7.64384 42.3406L7.61996 42.3412L7.60457 42.3422H7.59554L7.58015 42.3428L7.56105 42.3433L7.54937 42.3438L7.53716 42.3444L7.51699 42.3449L7.5016 42.3454H7.49417L7.47931 42.346L7.4533 42.3465H7.44269L7.43897 42.347H7.42358C7.37687 42.3481 7.32963 42.3486 7.28293 42.3486L7.27391 42.3492H7.27231H7.26276H7.23144H7.21871H7.21393H7.1996L7.17465 42.3486H7.16404H7.15608H7.13644H7.11627L7.10884 42.3481H7.09929H7.07328L7.05789 42.3476H7.05417H7.04409C6.97509 42.346 6.90609 42.3444 6.83709 42.3417L6.83497 42.3412H6.83444L6.82064 42.3406L6.78667 42.3396L6.7803 42.339H6.77712L6.75801 42.338L6.73094 42.3369L6.72563 42.3364H6.72086L6.69485 42.3348L6.67362 42.3337H6.67096L6.66619 42.3332C6.56269 42.3279 6.45919 42.3204 6.35569 42.3114C6.3196 41.9617 6.30103 41.6061 6.30103 41.2468C6.30103 38.4093 7.45012 35.8384 9.30618 33.9771L9.30459 33.9755L24.5273 18.7095L24.5289 18.711C25.653 17.5837 27.0367 16.7166 28.5817 16.2083Z" fill="#015FD9"/>
<path fill-rule="evenodd" clip-rule="evenodd" d="M18.2273 3.44504C20.0834 1.58375 22.6468 0.431824 25.4764 0.431824C31.1355 0.431824 35.7301 5.03944 35.7301 10.7147C35.7301 13.5524 34.5814 16.1231 32.7254 17.9845L32.7268 17.9859L17.5042 33.2519L17.5028 33.2505C15.6467 35.1118 13.0833 36.2637 10.2537 36.2637C4.59453 36.2637 0 31.6561 0 25.9808C0 23.1432 1.14865 20.5724 3.00465 18.7111L3.00323 18.7096L18.2259 3.44361L18.2273 3.44504Z" fill="#0167D9"/>
<path fill-rule="evenodd" clip-rule="evenodd" d="M13.3655 35.7804C13.2795 35.7751 13.193 35.7687 13.107 35.7613L13.0937 35.7602L13.0821 35.7591H13.081H13.0799C11.6373 35.6314 10.1995 35.1944 8.86361 34.421C7.21719 33.4677 5.93435 32.1248 5.06338 30.5748L5.06285 30.5737L5.06232 30.5727L5.0586 30.5663L5.03843 30.5296C4.9827 30.43 4.9291 30.3294 4.87708 30.2278L4.87602 30.2262L4.87283 30.2198L4.85267 30.1799L4.84683 30.1682L4.8447 30.1644L4.83993 30.1554L4.824 30.1229L4.81657 30.1085L4.81392 30.1027L4.80861 30.0926L4.79534 30.0654L4.78738 30.0484L4.78314 30.0409L4.77836 30.0308L4.76721 30.0079L4.75766 29.9877L4.75341 29.9787L4.74864 29.9691L4.73961 29.9499L4.729 29.927L4.72369 29.9159L4.71998 29.9079L4.71255 29.8919L4.69981 29.8653L4.69397 29.8531L4.69132 29.8467L4.68548 29.8339L4.67115 29.8025L4.66531 29.7897L4.66319 29.7855L4.65841 29.7753L4.64196 29.7381L4.63665 29.7264L4.63559 29.7237L4.6324 29.7163L4.61117 29.6684L4.60852 29.663L4.60799 29.662C4.5979 29.638 4.58729 29.6146 4.5772 29.5906L4.56712 29.5667L4.55916 29.5481L4.55491 29.539L4.55332 29.5348C4.54695 29.5193 4.54058 29.5039 4.53421 29.4884L4.52996 29.4794L4.52784 29.4735C4.52147 29.4586 4.5151 29.4432 4.50927 29.4278L4.50555 29.4193L4.50237 29.4118C4.49653 29.3969 4.49016 29.382 4.48432 29.3671L4.48114 29.3591L4.47742 29.3501C4.47158 29.3352 4.46574 29.3202 4.4599 29.3053L4.45725 29.299L4.45301 29.2888L4.44823 29.2755L4.43549 29.2436L4.43337 29.2383L4.42912 29.2271L4.42275 29.2101L4.41426 29.1882L4.41054 29.1776L4.4063 29.167L4.39781 29.1446L4.39197 29.1286L4.38772 29.1164L4.38454 29.1089L4.37339 29.0786L4.36915 29.0674L4.3649 29.0552L4.36225 29.0472C4.35694 29.0334 4.35163 29.0195 4.34685 29.0051L4.34261 28.994L4.33889 28.9833C4.33412 28.97 4.32934 28.9562 4.32456 28.9429L4.32085 28.9322L4.3166 28.9194L4.31395 28.9125L4.30333 28.8811L4.29962 28.8705L4.29431 28.855L4.29112 28.8455L4.28475 28.8268L4.27839 28.8082L4.27202 28.7901L4.2683 28.7784L4.26406 28.7662L4.25769 28.7459L4.25079 28.7241L4.24654 28.7113L4.24389 28.7033L4.23752 28.6837L4.22903 28.657L4.22478 28.6437L4.22319 28.6395L4.21735 28.6208L4.20461 28.5804L4.20302 28.5756V28.5751C4.1924 28.5415 4.18232 28.5075 4.17223 28.4734V28.4729L4.1717 28.4723L4.1595 28.4319L4.15525 28.4165L4.15472 28.4138L4.15207 28.4058L4.14145 28.368L4.13827 28.3579L4.1372 28.3547L4.13243 28.3377L4.12287 28.3047L4.12128 28.2983L4.12075 28.2956L4.11226 28.2664C4.1043 28.2365 4.0958 28.2062 4.08784 28.1764C4.07988 28.1461 4.07192 28.1163 4.06449 28.0859L4.05706 28.0572L4.056 28.054L4.05441 28.0481L4.04591 28.0146L4.04167 27.997L4.04114 27.9938L4.03848 27.9837L4.02946 27.9459L4.02734 27.9374L4.02628 27.9347L4.02256 27.9193L4.01301 27.8783V27.8773L4.01248 27.8767C3.99921 27.8198 3.98594 27.7623 3.97373 27.7048L3.9732 27.7032L3.97214 27.6984L3.96418 27.6622L3.9594 27.6377L3.95834 27.634L3.95728 27.6271L3.95091 27.5978L3.9456 27.5707L3.94401 27.5643L3.94295 27.559L3.93764 27.5334L3.9318 27.5036L3.93021 27.4951L3.92915 27.4908L3.9249 27.469L3.91853 27.436L3.91694 27.4254L3.91641 27.4232L3.91269 27.4046L3.9042 27.3572L3.90367 27.3562L3.90102 27.3407L3.89783 27.3232V27.3216L3.89518 27.3077L3.88934 27.2763L3.88616 27.2566L3.88562 27.2518L3.88297 27.2391L3.87872 27.2119L3.87501 27.1906L3.87395 27.1827L3.87182 27.1715L3.86811 27.1475L3.86439 27.1241L3.86227 27.1135L3.86121 27.1049L3.85803 27.0836L3.85431 27.0586L3.85166 27.0437L3.85113 27.0379L3.84794 27.0192L3.84476 26.9964L3.84157 26.9745L3.84104 26.9708L3.83892 26.9548L3.83679 26.941C3.8352 26.9288 3.83361 26.9165 3.83149 26.9043L3.8299 26.8904L3.82777 26.875L3.82724 26.8707L3.82406 26.8468L3.8214 26.8266L3.81928 26.8085L3.81822 26.801L3.8161 26.784L3.81344 26.7622L3.81079 26.7425L3.80973 26.7318L3.80813 26.7185C3.79911 26.6429 3.79115 26.5673 3.78372 26.4912L3.78319 26.4896V26.4848L3.77894 26.4417L3.77735 26.4242L3.77682 26.4204L3.77629 26.4135L3.7731 26.3773L3.77151 26.3566L3.77098 26.3512L3.77045 26.3443L3.7678 26.3135L3.7662 26.2884L3.76567 26.2821L3.76514 26.2757L3.76302 26.2496L3.76143 26.2203L3.7609 26.2129L3.76037 26.2075L3.75877 26.1857L3.75665 26.1511L3.75612 26.1442V26.1399L3.75506 26.1213L3.7524 26.0809V26.075L3.75187 26.0729L3.75134 26.0574L3.74869 26.0074V26.0063V26.0058C3.74285 25.8908 3.73967 25.7764 3.73754 25.662L3.73701 25.6199V25.6125V25.6114V25.6103C3.71844 23.8315 4.16003 22.025 5.11061 20.3738C5.13874 20.3249 5.16741 20.2764 5.19607 20.228L10.2393 11.4684L10.2404 11.4716C10.8465 13.7407 13.175 15.0889 15.4376 14.4811L32.1294 9.99564L32.131 9.99511L32.1867 9.98021L32.1888 9.97967L32.1931 9.97861L32.2143 9.97329L32.2424 9.96584L32.2488 9.96424L32.2573 9.96211L32.2769 9.95732L32.2976 9.952L32.3088 9.94934L32.3215 9.94614L32.3374 9.94188L32.3534 9.93816L32.3693 9.93443L32.3852 9.93017L32.398 9.92751L32.4091 9.92485L32.4293 9.92006L32.4494 9.91527L32.4585 9.91314L32.4643 9.91154L32.4908 9.90569L32.5137 9.90037L32.5184 9.8993L32.52 9.89877L32.5641 9.88866L32.5779 9.88599L32.6012 9.88067L32.6315 9.87429L32.6352 9.87322L32.6421 9.87162L32.6644 9.86683L32.6867 9.86204L32.6952 9.86045L32.7063 9.85832L32.7254 9.85406L32.7424 9.85087L32.7552 9.8482L32.77 9.84501L32.7854 9.84182L32.7981 9.83969L32.8151 9.83596L32.8342 9.83224L32.8459 9.83011L32.8539 9.82851L32.8751 9.82478L32.8985 9.81999L32.9059 9.81893L32.9091 9.81787L32.9356 9.81307L32.9627 9.80828L32.9903 9.80349L33.0205 9.79764H33.0216L33.0269 9.79657L33.0534 9.79232L33.0763 9.78806L33.081 9.78753L33.0906 9.78593L33.1134 9.78167L33.1315 9.77901L33.141 9.77741L33.1548 9.77528L33.1734 9.77209L33.1872 9.76996L33.2005 9.76783L33.219 9.76464L33.2334 9.76251L33.2429 9.76144L33.2599 9.75878L33.2833 9.75506L33.2933 9.75346L33.2981 9.75293L33.3188 9.74973L33.347 9.74548L33.3528 9.74494H33.3539L33.3708 9.74228L33.4112 9.73696L33.4451 9.73217L33.4648 9.72951H33.4674L33.4754 9.72844L33.5025 9.72472L33.5205 9.72259L33.5269 9.72152L33.5391 9.71993L33.5614 9.71727L33.5757 9.71567L33.5863 9.7146L33.6033 9.71248L33.6208 9.71035L33.6314 9.70928L33.6452 9.70768L33.667 9.70502L33.6803 9.70396L33.6866 9.70289L33.7031 9.7013L33.7312 9.6981L33.7402 9.69757L33.7424 9.69704L33.7578 9.69544C33.8029 9.69118 33.848 9.68693 33.8936 9.68267L33.9085 9.6816L33.9117 9.68107L33.9228 9.68001L33.9499 9.67788L33.9637 9.67681L33.9706 9.67628L33.9865 9.67468L34.0083 9.67309L34.0194 9.67256L34.0295 9.67149L34.0507 9.66989L34.0677 9.66883L34.0746 9.6683L34.0868 9.66723L34.1144 9.66564L34.1266 9.66457H34.1298L34.142 9.66404C34.1925 9.66084 34.2434 9.65765 34.2944 9.65552L34.2954 9.65499L34.3055 9.65446L34.34 9.65339L34.3506 9.65286L34.3543 9.65233L34.3692 9.6518L34.3963 9.65073H34.4058L34.4122 9.6502L34.4329 9.64967L34.4541 9.6486H34.461L34.4695 9.64807L34.4966 9.64754L34.5125 9.64701H34.5162H34.5247C34.5953 9.64488 34.6654 9.64381 34.7359 9.64328H34.7503H34.7853H34.7911H34.7938H34.8134L34.8766 9.64381L34.9053 9.64435C35.013 9.64541 35.1207 9.6486 35.2285 9.65286L35.2556 9.65446L35.2837 9.65552C35.4158 9.66191 35.5475 9.67096 35.6791 9.68267C35.7125 10.0223 35.7301 10.3666 35.7301 10.7147C35.7301 13.5523 34.5815 16.1231 32.7254 17.9845L32.727 17.9861L17.5043 33.2521L17.5028 33.2505C16.3584 34.3981 14.945 35.2764 13.3655 35.7804Z" fill="#015FD9"/>
<path fill-rule="evenodd" clip-rule="evenodd" d="M27.5344 36.2637H10.2517L10.1942 36.2635H10.1917H10.1875L10.1662 36.2633L10.1367 36.263L10.1297 36.263L10.1213 36.2629L10.1017 36.2626L10.0794 36.2623L10.0676 36.262L10.0553 36.2619L10.0389 36.2615L10.0221 36.2611L10.0054 36.2608L9.98925 36.2604L9.97678 36.26L9.96487 36.2597L9.94279 36.259L9.92338 36.2585L9.91486 36.2581L9.90769 36.258L9.87874 36.2569L9.8576 36.2562L9.85327 36.256L9.85058 36.2559L9.79782 36.2537L9.79198 36.2535L9.7736 36.2526L9.73669 36.2509L9.73243 36.2506L9.72643 36.2503L9.70561 36.2492L9.6799 36.2479L9.67099 36.2473L9.66097 36.2468L9.64275 36.2456L9.62311 36.2445L9.60954 36.2437L9.59566 36.2428L9.58099 36.2418L9.56648 36.2409L9.54794 36.2396L9.53043 36.2384L9.51962 36.2377L9.50992 36.237L9.48579 36.2352L9.46528 36.2337L9.4585 36.2331L9.45337 36.2327L9.42072 36.2301L9.40029 36.2286L9.39761 36.2283C9.37805 36.2267 9.35856 36.225 9.33908 36.2233L9.33545 36.2229L9.31416 36.221L9.28442 36.2183L9.27835 36.2177L9.27062 36.2169L9.25058 36.215L9.22826 36.2128L9.21769 36.2117L9.20602 36.2106L9.18914 36.2088L9.17218 36.207L9.15704 36.2055L9.14142 36.2038L9.12825 36.2023L9.11618 36.201L9.09615 36.1987L9.07706 36.1966L9.06775 36.1955L9.06034 36.1947L9.03455 36.1916L9.0127 36.189L9.00749 36.1884L9.00449 36.188L8.96648 36.1832L8.94857 36.181L8.92909 36.1785L8.8932 36.1738L8.89013 36.1733L8.88453 36.1726L8.86228 36.1696L8.83767 36.1662L8.83026 36.1652L8.82056 36.1639L8.80115 36.1611L8.7823 36.1584L8.77047 36.1567L8.75675 36.1547L8.74097 36.1523L8.72694 36.1502L8.71076 36.1478L8.6931 36.1451L8.68111 36.1433L8.67172 36.1419L8.65098 36.1385L8.62952 36.1352L8.62156 36.1339L8.61659 36.1331L8.59056 36.1288L8.56611 36.1249L8.56216 36.1241C8.54355 36.1211 8.52501 36.1179 8.50648 36.1147L8.50285 36.1141L8.47722 36.1096L8.45174 36.1052L8.44748 36.1044L8.43967 36.1029L8.41688 36.0988L8.397 36.0952L8.38872 36.0937L8.37665 36.0915L8.35764 36.0879L8.34234 36.0851L8.33004 36.0827L8.31371 36.0796L8.29864 36.0766L8.28784 36.0746L8.27167 36.0714L8.251 36.0673L8.23996 36.0651L8.23341 36.0638L8.2137 36.0598L8.18838 36.0546L8.18136 36.0532L8.17907 36.0527L8.15777 36.0483L8.12583 36.0416L8.08789 36.0334L8.0707 36.0297L8.06975 36.0295L8.06352 36.0282L8.0352 36.0219L8.01667 36.0178L8.01186 36.0167L8.00129 36.0144L7.97794 36.0091L7.9628 36.0056L7.95436 36.0037L7.93929 36.0002L7.92028 35.9958L7.909 35.9932L7.89717 35.9903L7.87737 35.9856L7.86263 35.9821L7.85529 35.9803L7.84086 35.9769L7.81554 35.9707L7.80505 35.9681L7.80165 35.9673L7.78691 35.9636C7.74132 35.9523 7.69588 35.9407 7.65045 35.9288L7.64162 35.9265L7.64043 35.9262L7.63113 35.9237L7.60068 35.9156L7.58846 35.9122L7.58396 35.9111L7.56992 35.9073L7.54563 35.9006L7.53537 35.8978L7.52796 35.8958L7.50887 35.8905L7.48963 35.885L7.48253 35.8831L7.47298 35.8804L7.44798 35.8733L7.43331 35.8691L7.42968 35.8681L7.42022 35.8653C7.3538 35.8462 7.28771 35.8264 7.22192 35.806L7.21964 35.8053L7.21916 35.8051L7.20599 35.8011L7.17358 35.7908L7.16742 35.7889L7.16435 35.788L7.14589 35.7821L7.12041 35.7739L7.11537 35.7723L7.11063 35.7707L7.08595 35.7628L7.06599 35.7562L7.06339 35.7554L7.05881 35.7539C6.95651 35.7202 6.85492 35.685 6.75412 35.6482L6.74166 35.6437L6.73046 35.6396L6.72967 35.6393L6.7288 35.639C5.36821 35.1415 4.09202 34.3458 3.00126 33.2519C1.65716 31.904 0.764533 30.2736 0.323387 28.5506L0.323071 28.5494L0.322834 28.5484L0.320941 28.5412L0.310688 28.5004C0.282846 28.39 0.256896 28.2788 0.232681 28.167L0.232287 28.1652L0.230866 28.1585L0.221481 28.1147L0.218799 28.1017L0.217931 28.0977L0.21588 28.0875L0.208546 28.052L0.205312 28.0363L0.204049 28.03L0.201841 28.0188L0.195846 27.9892L0.192219 27.9705L0.190561 27.9621L0.18851 27.9512L0.183621 27.9264L0.179519 27.9045L0.177548 27.8941L0.175734 27.8841L0.17179 27.8632L0.167215 27.8379L0.165007 27.826L0.163429 27.8174L0.160274 27.8L0.155226 27.7709L0.152859 27.7576L0.151676 27.7507L0.149232 27.7367L0.143473 27.7027L0.141186 27.6891L0.140319 27.6841L0.138505 27.6732L0.131958 27.6328L0.129907 27.6205L0.129513 27.6175L0.128171 27.6096L0.120127 27.5578L0.11918 27.5517L0.119022 27.5509C0.115078 27.5252 0.111293 27.4994 0.107507 27.4736L0.103878 27.4483L0.100961 27.4277L0.0996188 27.4181L0.0989881 27.414C0.0967008 27.3973 0.0944135 27.3806 0.092205 27.3639L0.0908643 27.3539L0.090076 27.3479C0.0878675 27.3316 0.0857372 27.3153 0.0836864 27.299L0.0825033 27.2897L0.0814779 27.2818C0.0795061 27.2657 0.0774556 27.2497 0.0755626 27.2335L0.0745372 27.2253L0.0734323 27.2158C0.0714605 27.1998 0.0695682 27.1837 0.0677541 27.1676L0.0669645 27.1608L0.0657032 27.15L0.0641254 27.136L0.0604185 27.1021L0.0597879 27.0963L0.0585254 27.0845L0.0566322 27.0662L0.0541878 27.0429L0.0530048 27.0315L0.0518999 27.0201L0.0495338 26.9962L0.0478777 26.9796L0.0466152 26.9667L0.0459051 26.9586L0.0429083 26.9262L0.0418829 26.9146L0.0406999 26.9017L0.0399115 26.8932C0.0386495 26.8784 0.0373872 26.8636 0.0361252 26.8488L0.0350998 26.8367L0.0342321 26.8255C0.033049 26.8111 0.0319448 26.7967 0.0308405 26.7823L0.0299728 26.7715L0.0289474 26.7577L0.0283949 26.7504L0.0260288 26.7175L0.0252405 26.7062L0.0241356 26.6896L0.0234268 26.6798L0.0221643 26.66L0.0208235 26.6408L0.0197187 26.6213L0.0189304 26.6092L0.018142 26.5961L0.0168795 26.5753L0.0156965 26.5522L0.0149082 26.5384L0.0145134 26.5302L0.0134098 26.5096L0.0120678 26.4818L0.0113589 26.4675L0.0112013 26.4633L0.0102541 26.4439L0.0085186 26.4012L0.00828271 26.3964V26.396C0.00686297 26.3606 0.00567943 26.3252 0.00465406 26.2896L0.00457583 26.2892V26.2882L0.00339155 26.2461L0.002998 26.2302V26.2275L0.0027609 26.2188L0.00189316 26.1798L0.00173549 26.1693L0.00165726 26.1658L0.00142017 26.148L0.000867747 26.1136L0.000789517 26.1074V26.1041L0.000474192 26.0741C0.000158693 26.043 0 26.0119 0 25.9808C0 25.9497 0.000158693 25.9186 0.000474192 25.8875L0.000789517 25.8574V25.8541L0.000867747 25.8479L0.00142017 25.8136L0.00165726 25.7957L0.00173549 25.7923L0.00189316 25.7817L0.0027609 25.7428L0.002998 25.734V25.7314L0.00339155 25.7155L0.00457583 25.6734V25.6723L0.00465406 25.6719C0.0063893 25.613 0.00859777 25.5543 0.0112795 25.4957L0.0113589 25.4941L0.0116743 25.4888L0.0134098 25.452L0.0147505 25.4273L0.0149082 25.4232L0.0153017 25.4165L0.0168795 25.3863L0.0185356 25.359L0.0189304 25.3524L0.0193251 25.3465L0.0208235 25.3208L0.0228743 25.2905L0.0234268 25.2817L0.0237421 25.2775L0.0252405 25.2554L0.0276861 25.2216L0.0283949 25.2112L0.0285526 25.209L0.0299728 25.1901L0.0337591 25.1421L0.0338373 25.1408V25.1407L0.0350998 25.1249L0.0365982 25.1075L0.0367559 25.1056L0.037939 25.0917L0.0406999 25.0599L0.0425136 25.0402L0.0429083 25.0354L0.0440914 25.0223L0.0466152 24.9949L0.0487455 24.9731L0.0495338 24.9654L0.0506386 24.9543L0.0530048 24.9301L0.0554491 24.9065L0.0566322 24.8954L0.0575794 24.8867L0.0597879 24.8653L0.0625476 24.8406L0.0642048 24.8256L0.0648355 24.8194L0.0669645 24.8007L0.0696472 24.7777L0.072171 24.756L0.072644 24.7523L0.0745372 24.7362L0.0761932 24.7224C0.0777707 24.71 0.0792698 24.6977 0.0808473 24.6853L0.0825033 24.6719L0.0845542 24.6559L0.0851066 24.6517L0.0881828 24.6282L0.0908643 24.6077L0.0933099 24.5898L0.0942558 24.5824L0.096622 24.5653L0.0996188 24.5435L0.10238 24.524L0.103878 24.5133L0.105771 24.5C0.116656 24.4245 0.128409 24.3492 0.140871 24.2743L0.141186 24.2724L0.142054 24.2675L0.149232 24.2249L0.152229 24.2075L0.152859 24.2039L0.154043 24.1971L0.160274 24.1615L0.16406 24.1407L0.165007 24.1356L0.166268 24.1286L0.17179 24.0983L0.176443 24.0737L0.177548 24.0674L0.17881 24.0609L0.183621 24.0352L0.189221 24.0064L0.190561 23.9995L0.191666 23.9941L0.195846 23.9723L0.202709 23.9385L0.204049 23.9316L0.204838 23.9276L0.208546 23.9095L0.216827 23.8694L0.217931 23.8639L0.218405 23.8617L0.221481 23.8469L0.232049 23.7978L0.232287 23.7963L0.232365 23.7959C0.256658 23.6837 0.282767 23.5721 0.310688 23.4612L0.320941 23.4204L0.322834 23.4132L0.323071 23.4122L0.323387 23.411C0.764533 21.6879 1.65716 20.0576 3.00126 18.7097C3.04117 18.6696 3.0814 18.63 3.12186 18.5907L10.2538 11.4386L10.2537 11.4423C10.2538 13.7911 12.1551 15.6978 14.4972 15.6978H31.7799V15.6979L31.8373 15.6981H31.8397H31.8441L31.8658 15.6983L31.8947 15.6985L31.9017 15.6986L31.9103 15.6987L31.9304 15.699L31.952 15.6993L31.9635 15.6996L31.9764 15.6997L31.9931 15.7001L32.0092 15.7004L32.0254 15.7008L32.0423 15.7012L32.0552 15.7016L32.0663 15.7019L32.0876 15.7025L32.1082 15.7031L32.117 15.7034L32.1235 15.7036L32.1506 15.7046L32.1739 15.7054L32.1787 15.7056L32.1805 15.7057L32.2258 15.7076L32.2396 15.7081L32.2637 15.7093L32.2942 15.7107L32.2982 15.711L32.3052 15.7113L32.3282 15.7125L32.351 15.7137L32.3593 15.7142L32.3706 15.7148L32.3902 15.7159L32.4076 15.717L32.4204 15.7178L32.436 15.7187L32.4516 15.7198L32.4643 15.7206L32.4814 15.7218L32.5012 15.7231L32.5127 15.7239L32.5208 15.7245L32.5424 15.7261L32.5663 15.7279L32.5737 15.7284L32.5772 15.7288L32.6038 15.7309L32.6312 15.733L32.6592 15.7355L32.6899 15.7381L32.691 15.7382L32.6962 15.7386L32.7231 15.7411L32.746 15.7432L32.7513 15.7437L32.7609 15.7446L32.7838 15.7469L32.8021 15.7486L32.8116 15.7496L32.8256 15.751L32.8442 15.753L32.8581 15.7544L32.8717 15.7558L32.8901 15.7578L32.9046 15.7594L32.914 15.7604L32.9314 15.7624L32.9546 15.765L32.9647 15.7662L32.9698 15.7667L32.9904 15.7692L33.0188 15.7726L33.0248 15.7733L33.0255 15.7734L33.0424 15.7755L33.083 15.7806L33.117 15.785L33.1368 15.7875L33.1391 15.7879L33.1471 15.789L33.1741 15.7927L33.1922 15.7951L33.1985 15.796L33.211 15.7977L33.2331 15.8009L33.2475 15.803L33.2578 15.8045L33.2748 15.8069L33.2924 15.8095L33.3028 15.811L33.3164 15.8132L33.3385 15.8164L33.3517 15.8185L33.3579 15.8195L33.3743 15.822L33.402 15.8264L33.4109 15.8279L33.4131 15.8282L33.4281 15.8306C33.4732 15.838 33.518 15.8456 33.5628 15.8535L33.5777 15.8561L33.581 15.8567L33.5919 15.8586L33.6188 15.8635L33.6323 15.8659L33.6392 15.8673L33.655 15.8701L33.6764 15.8741L33.6869 15.8761L33.6969 15.878L33.7178 15.882L33.7345 15.8852L33.7414 15.8866L33.7537 15.889L33.7806 15.8943L33.7927 15.8967L33.7958 15.8973L33.8077 15.8998C33.8576 15.9098 33.9074 15.9203 33.957 15.931L33.968 15.9334L34.002 15.9409L34.0123 15.9432L34.0157 15.944L34.0303 15.9472L34.0568 15.9532L34.0661 15.9554L34.0724 15.9569L34.0923 15.9614L34.1132 15.9663L34.1199 15.9678L34.1283 15.9699L34.1542 15.9759L34.1702 15.9797L34.1735 15.9805L34.1817 15.9826C34.2503 15.9991 34.3186 16.0164 34.3867 16.0342L34.4005 16.0379L34.4345 16.047L34.44 16.0485L34.4427 16.0492L34.4616 16.0543L34.4881 16.0616L34.4929 16.0629L34.4974 16.0641L34.5227 16.0711L34.5433 16.0769L34.5459 16.0776L34.5501 16.0788C34.6541 16.108 34.7574 16.1389 34.8599 16.1713L34.8856 16.1795L34.9128 16.1882C35.0484 16.2319 35.1828 16.2783 35.3159 16.3275C36.6716 16.8252 37.9431 17.6193 39.0303 18.7097C40.3745 20.0576 41.2671 21.688 41.7082 23.4111L41.7107 23.4208L41.7209 23.4612C41.7487 23.5716 41.7747 23.6828 41.7989 23.7945L41.7993 23.7967L41.801 23.8044L41.8101 23.8469L41.8127 23.8598L41.8137 23.8642L41.8159 23.875L41.8231 23.9095L41.8262 23.9252L41.8276 23.9319L41.8299 23.9435L41.8357 23.9723L41.8393 23.9909L41.8411 23.9997L41.8432 24.011L41.8479 24.0352L41.852 24.057L41.8541 24.0677L41.856 24.078L41.8598 24.0983L41.8643 24.1234L41.8667 24.1359L41.8682 24.1447L41.8713 24.1615L41.8763 24.1905L41.8788 24.2042L41.88 24.2113L41.8824 24.2249L41.8881 24.2585L41.8904 24.2727L41.8913 24.2778L41.893 24.2883L41.8996 24.3284L41.9016 24.3413L41.9022 24.3443L41.9034 24.3519L41.9114 24.4035L41.9124 24.4101L41.9126 24.4109C41.9165 24.4364 41.9202 24.4619 41.924 24.4874L41.9277 24.5135L41.9307 24.5342L41.932 24.5435L41.9326 24.5476C41.9349 24.5643 41.9372 24.5812 41.9394 24.5979L41.9408 24.6077L41.9415 24.6136C41.9437 24.63 41.9458 24.6463 41.9479 24.6628L41.9491 24.6719L41.9501 24.6796C41.9521 24.6959 41.9541 24.712 41.9561 24.7282L41.9571 24.7362L41.9582 24.7457C41.9601 24.7618 41.962 24.778 41.9639 24.7942L41.9647 24.8007L41.9658 24.8115L41.9674 24.8257L41.9711 24.8595L41.9718 24.8653L41.973 24.8768L41.975 24.8955L41.9774 24.9188L41.9785 24.9301L41.9796 24.9412L41.9821 24.9654L41.9837 24.9821L41.9849 24.9949L41.9856 25.0026L41.9887 25.0355L41.9897 25.0471L41.9909 25.0599L41.9916 25.0684C41.993 25.0832 41.9942 25.098 41.9954 25.1129L41.9964 25.1249L41.9973 25.1361C41.9985 25.1504 41.9997 25.1648 42.0008 25.1793L42.0016 25.1901L42.0026 25.2038L42.0032 25.2113L42.0055 25.2439L42.0064 25.2554L42.0075 25.2719L42.0082 25.2818L42.0095 25.3015L42.0107 25.3208L42.0119 25.3404L42.0126 25.3525L42.0134 25.3655L42.0147 25.3863L42.0159 25.4093L42.0166 25.4232L42.0171 25.4314L42.0182 25.452L42.0195 25.4799L42.0202 25.4941L42.0204 25.4982L42.0213 25.5177L42.0231 25.5606L42.0233 25.5656C42.0247 25.6009 42.0259 25.6364 42.027 25.6719L42.0282 25.7155L42.0285 25.7314L42.0286 25.734L42.0288 25.7428L42.0296 25.7817L42.0298 25.7923L42.0299 25.7957L42.0302 25.8136L42.0307 25.8479L42.0308 25.8541L42.0308 25.8574L42.0311 25.8875L42.0313 25.9143L42.0315 25.9808L42.0314 26.0446L42.0313 26.0473L42.0311 26.0741L42.0308 26.1041L42.0308 26.1074L42.0307 26.1136L42.0302 26.148L42.0299 26.1658L42.0298 26.1693L42.0296 26.1798L42.0288 26.2188L42.0286 26.2275L42.0285 26.2302L42.0282 26.2461L42.027 26.2882V26.2892V26.2896C42.0252 26.3485 42.023 26.4073 42.0203 26.4659L42.0202 26.4675L42.0199 26.4727L42.0182 26.5096L42.0169 26.5343L42.0166 26.5384L42.0163 26.545L42.0147 26.5753L42.013 26.6026L42.0126 26.6092L42.0123 26.615L42.0107 26.6408L42.0087 26.6711L42.0081 26.6798L42.0079 26.6841L42.0064 26.7062L42.0039 26.74L42.0031 26.7504L42.003 26.7526L42.0016 26.7715L41.9979 26.8195L41.9977 26.8208V26.8209L41.9964 26.8367L41.9949 26.8541L41.9948 26.856L41.9936 26.8699L41.9909 26.9017L41.9891 26.9214L41.9886 26.9262L41.9874 26.9393L41.9849 26.9667L41.9828 26.9885L41.9821 26.9962L41.981 27.0073L41.9785 27.0315L41.9761 27.0551L41.975 27.0662L41.974 27.0749L41.9718 27.0963L41.9691 27.121L41.9674 27.136L41.9667 27.1422L41.9647 27.1608L41.9619 27.1839L41.9594 27.2056L41.959 27.2092L41.9571 27.2253L41.9553 27.2391C41.9538 27.2515 41.9523 27.2639 41.9508 27.2762L41.9491 27.2897L41.9471 27.3056L41.9465 27.3099L41.9434 27.3334L41.9408 27.3539L41.9383 27.3718L41.9373 27.3792L41.935 27.3963L41.932 27.4181L41.9292 27.4376L41.9277 27.4483L41.9258 27.4616C41.9149 27.5371 41.9032 27.6123 41.8907 27.6873L41.8904 27.6891L41.8896 27.6941L41.8824 27.7367L41.8793 27.7541L41.8787 27.7576L41.8775 27.7644L41.8713 27.8L41.8675 27.8209L41.8666 27.826L41.8653 27.833L41.8598 27.8632L41.8552 27.8879L41.854 27.8942L41.8528 27.9006L41.8479 27.9264L41.8423 27.9552L41.841 27.9621L41.84 27.9675L41.8357 27.9892L41.8289 28.0231L41.8275 28.03L41.8267 28.0339L41.8231 28.052L41.8147 28.0922L41.8136 28.0977L41.8131 28.0999L41.8101 28.1147L41.7996 28.1638L41.7993 28.1652L41.7992 28.1656C41.7749 28.2779 41.7488 28.3895 41.7209 28.5004C41.7169 28.5164 41.7129 28.5324 41.7088 28.5484L41.7085 28.5494L41.7081 28.5506C41.2671 30.2736 40.3745 31.904 39.0303 33.2519C38.9904 33.292 38.9501 33.3316 38.9097 33.3709L31.7778 40.523C31.7778 38.1743 29.8764 36.2676 27.5344 36.2675V36.2637ZM14.4972 7.18301V7.18673L14.4935 7.18681L14.4972 7.18301Z" fill="#007BFF"/>
<path d="M65.6539 39.495C63.3751 39.495 61.4357 39.0708 59.8357 38.2223C58.2357 37.3738 57.0115 36.3193 56.163 35.0586C55.3145 33.7738 54.7933 32.4768 54.5994 31.1677L59.9448 29.8223C60.5751 32.7556 62.5145 34.2223 65.763 34.2223C66.9024 34.2223 67.7994 33.9677 68.4539 33.4586C69.1327 32.9496 69.4721 32.2829 69.4721 31.4586C69.4721 30.7556 69.2176 30.1617 68.7085 29.6768C68.2236 29.192 67.5448 28.8647 66.6721 28.695L62.8903 28.0041C60.6115 27.592 58.8175 26.6586 57.5085 25.2041C56.2236 23.7496 55.5812 21.9193 55.5812 19.7132C55.5812 18.2344 56.0175 16.8647 56.8903 15.6041C57.7872 14.3435 58.9509 13.3496 60.3812 12.6223C61.8357 11.895 63.363 11.5314 64.963 11.5314C67.1206 11.5314 68.9145 11.895 70.3448 12.6223C71.7994 13.3253 72.9024 14.2102 73.6539 15.2768C74.4054 16.3193 74.8903 17.398 75.1085 18.5132L69.7994 20.1132C69.2903 18.8526 68.6842 17.992 67.9812 17.5314C67.2782 17.0465 66.2721 16.8041 64.963 16.8041C64.2842 16.8041 63.6782 16.9496 63.1448 17.2405C62.6357 17.5071 62.2357 17.8586 61.9448 18.295C61.6539 18.7071 61.5085 19.1314 61.5085 19.5677C61.5085 20.2708 61.7266 20.8526 62.163 21.3132C62.5994 21.7738 63.2418 22.0889 64.0903 22.2586L67.8357 23.0223C70.2842 23.5314 72.1751 24.5132 73.5085 25.9677C74.8418 27.4223 75.5085 29.1556 75.5085 31.1677C75.5085 32.5496 75.1085 33.8829 74.3085 35.1677C73.5327 36.4526 72.3933 37.495 70.8903 38.295C69.4115 39.095 67.666 39.495 65.6539 39.495Z" fill="white"/>
<path d="M87.5979 39.495C85.5616 39.495 83.7555 39.0344 82.1798 38.1132C80.604 37.192 79.3798 35.9435 78.507 34.3677C77.6586 32.7677 77.2343 31.0102 77.2343 29.095C77.2343 27.1556 77.6707 25.398 78.5434 23.8223C79.4161 22.2465 80.6161 21.0102 82.1434 20.1132C83.6707 19.2162 85.3676 18.7677 87.2343 18.7677C89.2707 18.7677 91.0283 19.192 92.507 20.0405C93.9858 20.8889 95.1131 22.0647 95.8889 23.5677C96.6646 25.0465 97.0525 26.7071 97.0525 28.5496C97.0525 29.4465 96.9676 30.1496 96.798 30.6586H82.907C83.0767 31.9193 83.5737 32.9253 84.3979 33.6768C85.2464 34.4041 86.3373 34.7677 87.6707 34.7677C88.6161 34.7677 89.4404 34.5738 90.1434 34.1859C90.8464 33.798 91.3919 33.2647 91.7798 32.5859L96.1434 34.6586C95.5373 36.1132 94.4586 37.2889 92.907 38.1859C91.3798 39.0586 89.6101 39.495 87.5979 39.495ZM91.2707 26.6586C91.1495 25.592 90.7252 24.7435 89.9979 24.1132C89.2707 23.4586 88.3495 23.1314 87.2343 23.1314C86.1434 23.1314 85.2222 23.4344 84.4707 24.0405C83.7434 24.6465 83.2586 25.5193 83.0161 26.6586H91.2707Z" fill="white"/>
<path d="M109.101 39.2768C106.701 39.2768 104.834 38.6344 103.501 37.3496C102.192 36.0405 101.537 34.2223 101.537 31.895V23.9314H98.1917V19.2041H98.3735C99.3917 19.2041 100.167 18.9496 100.701 18.4405C101.258 17.9314 101.537 17.1677 101.537 16.1496V14.695H106.992V19.2041H111.646V23.9314H106.992V31.5314C106.992 32.5496 107.27 33.3132 107.828 33.8223C108.386 34.3071 109.234 34.5496 110.374 34.5496C110.713 34.5496 111.137 34.5132 111.646 34.4405V39.095C110.846 39.2162 109.998 39.2768 109.101 39.2768Z" fill="white"/>
<path d="M120.806 39.495C118.649 39.495 116.952 38.9859 115.715 37.9677C114.479 36.9496 113.861 35.5435 113.861 33.7496C113.861 32.0526 114.443 30.6708 115.606 29.6041C116.794 28.5132 118.564 27.7738 120.915 27.3859L126.406 26.5132V25.9677C126.406 25.2162 126.103 24.5859 125.497 24.0768C124.891 23.5677 124.091 23.3132 123.097 23.3132C122.127 23.3132 121.267 23.5799 120.515 24.1132C119.788 24.6223 119.255 25.3253 118.915 26.2223L114.552 24.1496C115.133 22.5011 116.212 21.192 117.788 20.2223C119.388 19.2526 121.243 18.7677 123.352 18.7677C125 18.7677 126.467 19.0708 127.752 19.6768C129.061 20.2829 130.067 21.1314 130.77 22.2223C131.497 23.3132 131.861 24.5617 131.861 25.9677V39.0586H126.77V37.2041C125.994 37.9799 125.121 38.5617 124.152 38.9496C123.182 39.3132 122.067 39.495 120.806 39.495ZM119.497 33.5677C119.497 34.1738 119.715 34.6465 120.152 34.9859C120.612 35.3253 121.194 35.495 121.897 35.495C123.23 35.495 124.309 35.0829 125.133 34.2586C125.982 33.4102 126.406 32.3677 126.406 31.1314V30.5132L121.897 31.3132C121.097 31.4586 120.491 31.7132 120.079 32.0768C119.691 32.4405 119.497 32.9374 119.497 33.5677Z" fill="white"/>
<path d="M134.77 19.2041H139.861V22.1859C140.346 21.0223 141.037 20.198 141.934 19.7132C142.831 19.2283 143.934 18.9859 145.243 18.9859H146.406V23.7132H144.697C143.34 23.7132 142.249 24.1253 141.425 24.9496C140.625 25.7738 140.225 26.9132 140.225 28.3677V39.0586H134.77V19.2041Z" fill="white"/>
<path d="M155.961 38.695L148.288 19.2041H154.143L158.833 31.9677L163.524 19.2041H169.379L158.761 46.3314H152.943L155.961 38.695Z" fill="white"/>
<path d="M175.852 36.2273C175.852 38.1101 174.326 39.6364 172.443 39.6364C170.56 39.6364 169.034 38.1101 169.034 36.2273C169.034 34.3445 170.56 32.8182 172.443 32.8182C174.326 32.8182 175.852 34.3445 175.852 36.2273Z" fill="#027BFE"/>
</svg>
